<?xml version="1.0" encoding="utf-8"?>
<!-- Designed by Vexels.com - 2019 All Rights Reserved - https://vexels.com/terms-and-conditions/  -->
<svg version="1.1" id="Capa_1" xmlns="http://www.w3.org/2000/svg" xmlns:xlink="http://www.w3.org/1999/xlink" x="0px" y="0px"
	 viewBox="0 0 1200 1200" enable-background="new 0 0 1200 1200" xml:space="preserve">
<g>
	<g>
		<path fill="#494170" d="M797.664,263.011c-2.645,2.583-3.792,6.241-3.157,10.534c0.428,2.886,2.292,5.26,4.989,6.355
			c0.995,0.403,2.05,0.6,3.1,0.6c1.816,0,3.623-0.59,5.106-1.727c1.024-0.783,2.584-1.141,4.551-1.084
			c-0.785,2.883-2.085,6.61-4.12,9.691c-1.836,2.777-1.627,6.353,0.523,8.893c1.458,1.727,3.533,2.652,5.666,2.652
			c1.023,0,2.06-0.214,3.048-0.652c7.195-3.191,15.494-10.536,19.149-19.011c1.987,2.02,3.548,4.402,3.815,6.176
			c2.488,16.617,11.195,19.849,16.161,20.299c0.241,0.02,0.5,0.032,0.771,0.032c9.774,0,38.969-13.875,45.513-27.152
			c5.989-12.15-5.536-20.789-13.952-27.097c-0.917-0.687-1.835-1.379-2.738-2.072c33.793-16.835,57.252-40.46,69.784-70.321
			c13.738-32.74,9.358-61.582,6.838-72.463c-0.876-3.782-4.063-6.345-7.93-6.38c-3.872-0.159-7.196,2.56-8.134,6.313
			c-0.425,1.707-0.948,3.349-1.56,4.924c-2.702-11.834-7.417-21.979-13.554-29.011c-2.122-2.429-5.479-3.394-8.547-2.461
			c-3.088,0.938-5.263,3.518-5.676,6.731c-1.299,10.067-3.556,18.605-6.38,24.144l-2.025-5.19c-1.508-3.869-5.407-6.017-9.473-5.21
			c-4.088,0.806-6.897,4.28-6.828,8.453c0.192,11.312-0.878,18.98-2.249,24.119c-0.687-2.035-1.463-3.946-2.324-5.716
			c-1.699-3.491-5.407-5.362-9.229-4.643c-3.817,0.712-6.599,3.785-6.925,7.649c-1.351,16.054-7.281,43.447-31.812,46.55
			c-3.859,0.495-10.222-0.938-14.176-4.17c-1.737-1.423-2.677-2.934-2.789-4.489c-0.182-2.471,0.266-5.434,1.264-8.351
			c1.062-3.108,0.07-6.432-2.526-8.468c-2.585-2.025-6.044-2.202-8.794-0.428c-6.359,4.081-10.643,9.783-13.882,15.092
			c-0.841-1.489-2.184-2.682-3.904-3.303c-3.15-1.147-6.567-0.075-8.515,2.628c-4.392,6.086-6.757,14.095-6.616,20.736
			c-9.305-1.049-29.09-5.699-36.16-26.075c-1.137-3.27-4.098-5.385-7.544-5.387c-0.003,0-0.005,0-0.007,0
			c-2.655,0-5.024,1.269-6.472,3.359c-1.56-2.819-3.095-6.119-4.72-10.132c-1.249-3.078-4.335-4.874-7.597-4.471
			c-3.287,0.401-5.813,2.874-6.28,6.158c-2.289,16.029,2.451,49.837,24.89,77.273C751.733,245.853,772.346,257.939,797.664,263.011z
			 M813.005,164.37c-0.144,1.485-0.189,3.048-0.072,4.648c0.323,4.394,2.57,8.418,6.502,11.635
			c5.711,4.673,14.703,7.293,21.909,6.395c21.449-2.715,35.764-20.419,39.909-48.946c0.318,1.082,0.612,2.21,0.878,3.379
			c0.786,3.456,3.563,5.942,7.079,6.335c3.538,0.401,6.778-1.423,8.308-4.623c3.006-6.293,4.743-14.962,5.186-25.838
			c1.826,3.113,4.494,4.952,7.562,5.133c1.774,0.122,6.203-0.296,9.376-6.226c3.675-6.87,5.82-15.803,7.062-23.312
			c4.534,6.756,7.878,16.014,9.562,26.622c0.537,3.374,3.043,5.979,6.39,6.641c3.297,0.657,6.559-0.784,8.308-3.648
			c1.182-1.933,2.227-3.984,3.13-6.136c3.038,22.902,3.665,87.68-75.817,125.443c-0.085-0.144-0.195-0.29-0.269-0.434
			c-0.883-1.712-1.729-3.523-2.595-5.375c-4.245-9.067-9.525-20.351-21.839-25.863c-2.57-1.15-5.584,0-6.733,2.568
			c-1.15,2.57,0,5.584,2.568,6.733c8.856,3.964,12.882,12.563,16.773,20.881c0.923,1.973,1.829,3.904,2.769,5.728
			c1.076,2.086,2.607,3.998,4.387,5.803c0.016,0.016,0.031,0.031,0.048,0.047c2.732,2.76,6.057,5.265,9.327,7.716
			c9.289,6.962,12.859,10.508,10.923,14.437c-4.807,9.754-31.116,21.919-36.224,21.471c-4.402-0.398-6.236-6.559-7.002-11.66
			c-0.208-1.387-0.692-2.775-1.299-4.144c2.209-0.007,4.551-0.131,7.037-0.388c2.799-0.286,4.837-2.789,4.549-5.589
			c-0.286-2.797-2.769-4.874-5.589-4.549c-5.637,0.573-9.651,0.351-12.491-0.169c0.864-1.905,1.425-4.29,1.289-7.248
			c-0.132-2.814-2.521-4.944-5.325-4.857c-2.812,0.129-4.986,2.513-4.857,5.325c0.102,2.21-0.587,3.133-1.199,3.69
			c-2.468,2.247-8.836,2.896-17.035,1.747c-0.687-0.097-1.349-0.164-1.988-0.207c2.12-0.613,4.39-1.442,6.481-2.704
			c0.05-0.028,0.099-0.054,0.148-0.084c0.051-0.031,0.103-0.058,0.152-0.091c4.889-3.077,8.676-8.691,6.953-20.025
			c-0.423-2.784-3.021-4.69-5.805-4.272c-2.782,0.423-4.695,3.021-4.272,5.805c0.57,3.753,0.402,6.159-0.436,7.82
			c-11.318-7.61-13.355-18.759-14.996-27.868l-0.45-2.448c-0.816-4.282-3.74-7.758-7.823-9.299
			c-2.717-1.025-5.616-1.067-8.263-0.199c-0.097-2.401-0.017-4.725,0.239-6.94c0.883-7.731,5.133-14.887,11.657-19.63
			c3.003-2.182,5.096-6.022,7.522-10.468C806.819,173.079,809.404,168.341,813.005,164.37z M723.196,166.646
			c1.737,2.702,4.805,4.15,7.98,3.767c1.946-0.229,3.685-1.107,4.987-2.448c8.958,19.348,28.16,26.584,41.713,28.283
			c-1.279,3.14-2.184,6.43-2.573,9.822c-0.5,4.357-0.453,8.998,0.139,13.802c0.318,2.575,2.008,4.795,4.409,5.79
			c2.404,0.998,5.173,0.625,7.223-0.97l0.575-0.445c0.913-0.714,1.849-0.47,2.21-0.338c0.438,0.167,1.204,0.602,1.406,1.67
			l0.43,2.346c1.298,7.196,3.065,16.84,9.571,25.401c-23.711-4.434-42.887-15.445-57.139-32.87
			c-15.43-18.866-21.665-41.362-22.882-57.051C721.885,164.541,722.534,165.619,723.196,166.646z"/>
		<path fill="#494170" d="M796.117,197.531c-1.381,2.453-0.51,5.559,1.943,6.94c1.64,0.923,3.869,1.578,6.303,1.578
			c3.979,0,8.502-1.752,11.889-6.95c1.535-2.359,0.868-5.516-1.488-7.052c-2.356-1.535-5.516-0.866-7.052,1.488
			c-1.418,2.177-3.013,2.852-4.745,2.003C800.528,194.226,797.48,195.11,796.117,197.531z"/>
		<path fill="#494170" d="M591.116,226.138c-2.669-0.886-5.555,0.562-6.441,3.232c-1.332,4.011-4.46,3.959-6.216,3.563
			c-2.7-0.662-5.452,0.973-6.146,3.683c-0.7,2.725,0.942,5.502,3.668,6.203c1.116,0.286,2.39,0.45,3.742,0.45
			c5.365,0,11.944-2.615,14.623-10.69C595.234,229.91,593.787,227.026,591.116,226.138z"/>
		<path fill="#494170" d="M1027.993,707.614c0.015-0.081,0.018-0.164,0.029-0.246c0.019-0.142,0.031-0.281,0.038-0.422
			c0.006-0.102,0.02-0.203,0.019-0.305c-0.001-0.084-0.014-0.167-0.019-0.251c-0.008-0.147-0.024-0.291-0.044-0.435
			c-0.014-0.097-0.018-0.194-0.038-0.291c-0.017-0.084-0.047-0.165-0.069-0.249c-0.037-0.143-0.081-0.282-0.13-0.421
			c-0.033-0.094-0.056-0.19-0.095-0.283c-0.032-0.076-0.076-0.148-0.112-0.223c-0.068-0.142-0.145-0.276-0.226-0.412
			c-0.045-0.075-0.073-0.155-0.121-0.228L902.656,517.532c-6.412-11.864-18.254-19.453-31.73-20.317
			c-13.581-0.868-26.358,5.233-34.219,16.32L720.226,705.784l-57.642-84.226c-1.206-13.453-2.713-22.378-3.163-24.884
			c5.364-55.797-28.472-92.834-35.634-99.989c-0.664-3.21-2.529-9.97-7.178-16.169c-0.366-6.324-0.484-13.066-0.497-17.491
			c0.045-0.036,0.081-0.08,0.127-0.116c11.379-8.831,12.734-26.115,12.848-32.191c3.75-4.159,6.46-9.745,7.714-16.092
			c7.73-2.259,28.567-8.542,49.238-16.464c49.469-18.951,55.418-30.8,55.588-38.063c0.482-20.329-12.518-87.104-14.931-99.3
			c5.656-5.456,8.282-13.878,4.21-28.146c-2.623-9.187-11.857-14.566-21.018-12.257c-2.449,0.62-22.626,5.974-29.735,15.775
			c-3.007,0.768-7.927,2.592-10.993,6.716c-2.254,3.033-3.093,6.756-2.421,10.769c1.431,8.54,7.669,12.013,13.026,12.416
			c0.378,0.027,0.756,0.042,1.14,0.042c1.45,0,2.926-0.212,4.277-0.653c0.946,1.183,2.014,2.266,3.235,3.191
			c1.277,0.967,2.946,1.916,5.005,2.549c0.484,5.867,0.738,19.51-4.321,38.656c-3.266,12.356-3.8,23.12-3.332,31.462
			c-23.51,3.821-77.726,5.793-87.553,6.126c-16.244-17.926-11.653-38.818-9.301-46.135c0.609-0.019,1.211-0.025,1.828-0.062
			c5.895-0.346,10.685-2.615,14.238-6.743c5.414-6.293,7.507-16.671,6.216-30.847c-0.037-0.406,0.087-0.796,0.309-0.975
			c2.008-1.61,4.063-3.922,6.106-6.868c2.565-3.7,2.665-8.51,0.254-12.252c-5.853-9.089-9.213-26.97-10.343-33.905
			c2.853-2.536,6.935-7.28,7.943-14.246c0.007-0.038,0.014-0.076,0.02-0.114c0.01-0.07,0.027-0.134,0.036-0.204
			c0.01-0.077,0-0.152,0.006-0.228c0.007-0.082,0.03-0.159,0.033-0.242c0.001-0.04-0.008-0.077-0.008-0.117
			c0.001-0.097-0.003-0.192-0.008-0.289c-0.006-0.133-0.021-0.262-0.037-0.392c-0.013-0.108-0.02-0.216-0.039-0.322
			c-0.017-0.089-0.041-0.177-0.063-0.266c-0.032-0.131-0.072-0.257-0.114-0.384c-0.034-0.104-0.062-0.21-0.103-0.31
			c-0.032-0.081-0.072-0.159-0.109-0.238c-0.056-0.12-0.118-0.234-0.183-0.349c-0.058-0.103-0.112-0.207-0.177-0.306
			c-0.022-0.034-0.035-0.072-0.058-0.105c-0.199-0.287-10.472-14.786-28.754-24.934c5.504-9.178,15.996-29.157,12.851-43.697
			c-1.184-5.472-4.108-9.677-8.69-12.498c-12.174-7.497-52.552-16.415-90.717-3.073c-29.261,10.232-50.507,31.673-61.441,62
			c-14.255,39.536-10.792,76.909,10.588,114.256c5.266,9.197,15.043,14.439,24.983,14.439c4.422,0,8.877-1.038,12.979-3.227
			c0.178-0.095,0.348-0.207,0.524-0.305c1.182,2.354,2.348,4.491,3.466,6.366c-9.141,6.245-26.39,23.763-24.976,66.319
			c-8.893,3.722-19.852,8.392-32.351,13.868l-24.936-92.358c15.379-13.707,10.337-37.115,7.76-49.038
			c-1.401-6.474-5.081-8.871-7.924-9.739c-1.778-0.547-6.013-1.8-14.665,3.207l-35.961-132.554l2.845-0.814
			c2.708-0.776,4.918-2.697,6.061-5.27c1.143-2.575,1.089-5.502-0.228-8.184l-16.492-30.984c-1.984-4.051-6.274-6.086-10.667-5.071
			c-4.396,1.02-7.348,4.735-7.344,9.433l1.301,35.318c0,3.006,1.377,5.768,3.777,7.579c1.676,1.262,3.659,1.918,5.688,1.918
			c0.877,0,1.764-0.124,2.638-0.373l2.621-0.75l36.896,136c-2.297,1.872-4.78,4.055-7.499,6.658
			c-3.756,3.596-6.35,8.204-7.501,13.327c-6.35,28.277-12.668,74.021-6.706,131.36c2.735,26.306,10.318,43.368,23.184,52.161
			c7.585,5.183,16.47,7.027,25.562,7.024c9.686,0,19.594-2.095,28.417-4.461L478.8,589.337c-0.063,0.158-0.121,0.3-0.184,0.459
			c-0.297,0.747-0.537,1.485-0.787,2.225l-16.142-22.307c-4.791-6.756-12.593-10.513-20.853-9.946
			c-8.266,0.527-15.525,5.21-19.416,12.523l-67.325,126.551l-65.502-92.388c-4.791-6.756-12.597-10.505-20.853-9.946
			c-8.266,0.528-15.525,5.21-19.372,12.444l-75.817,136.565c-0.032,0.058-0.047,0.121-0.077,0.179
			c-0.043,0.084-0.087,0.166-0.125,0.253c-0.048,0.109-0.087,0.22-0.127,0.333c-0.043,0.121-0.083,0.242-0.117,0.365
			c-0.021,0.076-0.043,0.151-0.06,0.228c-0.027,0.118-0.044,0.237-0.062,0.357c-0.021,0.139-0.037,0.275-0.047,0.414
			c-0.005,0.067-0.011,0.133-0.013,0.2c-0.004,0.123,0.002,0.244,0.008,0.368c0.007,0.151,0.021,0.3,0.041,0.45
			c0.006,0.046,0.001,0.09,0.008,0.136c0.003,0.02,0.012,0.037,0.015,0.057c0.019,0.109,0.046,0.216,0.073,0.326
			c0.037,0.154,0.083,0.303,0.134,0.453c0.026,0.076,0.047,0.154,0.077,0.229c0.015,0.037,0.019,0.075,0.035,0.112
			c71.552,169.166,236.46,278.473,420.122,278.473c99.209,0,193.529-31.312,272.76-90.55c11.975-8.953,23.489-18.5,34.503-28.583
			c0.247-0.193,0.471-0.401,0.674-0.63c59.107-54.333,103.711-124.136,127.483-200.494c0.025-0.079,0.028-0.159,0.049-0.238
			C1027.931,707.842,1027.971,707.731,1027.993,707.614z M343.036,94.089l-1.163-31.563l14.733,27.682L343.036,94.089z
			 M845.125,519.289c5.808-8.094,15.206-12.536,25.149-11.901c10.01,0.642,18.799,6.31,23.509,15.166l122.178,182.783
			c-105.1,72.752-221.503,121.349-346.139,144.511c-0.564-12.912-1.216-25.72-1.917-38.039L845.125,519.289z M627.736,957.334
			c-7.985-30.696-12.901-77.823-13.226-80.996c-3.614-153.449,22.778-232.147,36.952-262.976
			c2.115,18.569,4.411,51.942-0.023,89.524c-0.933,7.898-0.99,15.726-0.169,23.263c4.265,39.156,12.739,168.227,9.673,235.194
			C650.055,960.575,638.976,959.268,627.736,957.334z M439.901,861.247c-5.104-4.64-10.158-9.085-15.168-13.375
			c-2.032-55.497-2.841-85.559-2.401-89.325c0.707-6.039-0.58-12.192-1.957-17.983c-2.763-11.595-1.856-23.544,2.62-34.557
			c13.3-32.712,40.824-70.897,54.135-88.416c1.917,8.211,5.435,16.878,9.498,26.835c7.211,17.667,16.266,39.918,21.374,71.859
			c-3.737,4.215-15.515,15.825-34.722,19.579c-2.762,0.54-4.563,3.217-4.023,5.979c0.475,2.431,2.608,4.118,4.996,4.118
			c0.323,0,0.653-0.03,0.983-0.095c1.187-0.232,2.316-0.521,3.453-0.8c1.058,13.717,3.068,55.302-8.958,78.571
			c-5.373,10.395-9.411,28.21-12.036,52.995C451.758,871.753,445.826,866.634,439.901,861.247z M552.687,863.002l0.161,0.597
			c-35.365,1.719-64.011,0.812-83.193-0.425c2.353-15.868,5.444-27.729,9.13-34.859c14.213-27.498,10.918-75.021,9.875-86.448
			c9.245-3.735,16.257-8.744,21.062-12.963c1.235,10.612,2.054,22.147,2.23,34.875C512.699,817.739,531.54,847.075,552.687,863.002z
			 M468.322,873.303c11.856,0.779,27.367,1.438,45.87,1.438c11.945,0,25.139-0.276,39.395-0.97c0.672-0.034,1.304-0.202,1.88-0.468
			l18.959,70.222c-35.129-12.247-71.197-31.271-107.239-59.294C467.535,880.44,467.913,876.792,468.322,873.303z M586.011,947.333
			l-20.616-76.36c15.605,8.043,30.771,10.157,39.427,10.65c1.348,12.253,5.502,46.979,11.887,73.599
			C606.583,953.126,596.345,950.523,586.011,947.333z M714.426,715.357l-47.594,78.551c-1.873-29.751-3.916-54.957-5.43-68.865
			c-0.739-6.773-0.684-13.827,0.159-20.964c2.757-23.373,3.014-44.953,2.305-62.598L714.426,715.357z M649.33,595.303
			c-9.547,16.124-48.655,93.693-45.12,276.104c-10.669-0.661-27.496-3.639-43.145-14.569c-0.505-0.595-1.138-1.053-1.846-1.363
			c-19.32-14.379-36.377-41.36-37.075-91.834c-0.849-61.243-15.431-96.975-26.079-123.067c-8.135-19.933-13.51-33.101-7.979-47.011
			c2.717-6.833,5.118-12.63,7.225-17.716c5.779-13.95,9.484-22.938,11.405-33.348c3.554,6.171,7.562,12.111,12.085,17.734
			c1.006,1.252,2.483,1.901,3.974,1.901c1.121,0,2.249-0.368,3.19-1.125c2.193-1.764,2.54-4.972,0.776-7.166
			c-48.153-59.855-34.338-161.549-29.144-190.547c1.936,0.788,4.048,1.23,6.263,1.23c0.271,0,0.536-0.028,0.804-0.041
			c3.822,20.196,22.691,89.314,105.81,135.802c0.053,0.039,0.117,0.057,0.171,0.094c1.771,0.988,3.529,1.981,5.358,2.949
			C620.032,507.301,654.191,542.677,649.33,595.303z M503.86,354.335c-3.582,0-6.496-2.914-6.496-6.494
			c0-3.583,2.914-6.497,6.496-6.497c3.581,0,6.494,2.914,6.494,6.497C510.355,351.422,507.441,354.335,503.86,354.335z
			 M537.072,416.636c-0.611-6.875,0.906-13.474,4.272-18.585c3.123-4.743,7.478-7.587,12.262-8.012
			c4.795-0.428,9.574,1.607,13.484,5.723c4.215,4.437,6.873,10.665,7.483,17.537c0.612,6.875-0.906,13.474-4.271,18.585
			c-3.124,4.74-7.478,7.587-12.265,8.012c-1.839,0.162-3.671-0.047-5.474-0.596c-5.986-7.344-11.065-14.628-15.367-21.656
			C537.158,417.307,537.102,416.977,537.072,416.636z M613.847,428.117c-3.839,0.343-7.729-1.515-10.982-5.223
			c-3.647-4.155-5.969-9.99-6.542-16.427c-1.11-12.484,5.041-23.661,13.43-24.407c0.299-0.027,0.595-0.04,0.891-0.04
			c8.059,0,15.564,9.654,16.634,21.693C628.389,416.196,622.24,427.371,613.847,428.117z M712.38,230.281
			c3.73-0.943,7.644,1.376,8.726,5.171c5.029,17.622-1.003,20.376-19.184,25.753c-4.16,1.232-6.186,0.209-7.345-0.669
			c-4.675-3.528-5.972-13.728-6.141-18.485C691.045,238.51,700.667,233.235,712.38,230.281z M676.702,256.548
			c-0.39-0.212-2.078-1.065-2.514-3.661c-0.274-1.632,0.284-3.031,0.674-3.568c0.766-1.052,1.976-1.826,3.818-1.572
			c0.311,2.455,0.841,5.284,1.716,8.148C680.065,256.598,678.133,257.326,676.702,256.548z M609.234,250.01
			c-1.463,2.108-2.884,3.742-4.113,4.728c-2.901,2.331-4.425,6.012-4.077,9.846c1.285,14.103-1.352,20.443-3.791,23.275
			c-1.731,2.013-3.99,3.036-7.109,3.22c-14.737,0.839-27.21-4.743-27.407-4.83c-2.552-1.187-5.575-0.07-6.759,2.481
			c-1.184,2.553-0.075,5.584,2.478,6.768c0.451,0.208,8.629,3.943,20.072,5.341c-2.312,8.981-4.677,26.331,4.708,43.184
			c-0.544,0.32-1.105,0.648-1.682,0.979c-6.544,3.752-3.294,13.511-2.142,16.413c0.793,1.996,2.706,3.212,4.733,3.212
			c0.623,0,1.257-0.117,1.871-0.358c2.614-1.03,3.898-3.989,2.873-6.606c-0.576-1.471-1.031-3.357-1.115-4.484
			c0.431-0.252,0.845-0.496,1.248-0.736c3.917,4.704,8.948,9.246,15.401,13.411c0.856,0.55,1.814,0.814,2.759,0.814
			c1.672,0,3.312-0.821,4.287-2.331c1.525-2.366,0.846-5.519-1.518-7.047c-0.036-0.023-0.068-0.048-0.103-0.071
			c19.851-0.801,57.485-2.652,77.08-5.758c0.886,4.968,1.913,7.895,2.025,8.205c0.754,2.07,2.707,3.357,4.79,3.357
			c0.577,0,1.167-0.1,1.742-0.309c2.645-0.963,4.009-3.887,3.048-6.532c-0.065-0.177-6.37-18.025,0.421-43.719
			c5.187-19.625,5.222-33.971,4.707-41.185c0.381-0.094,0.759-0.183,1.153-0.299c4.242-1.254,8.63-2.557,12.644-4.314
			c3.568,18.363,14.397,75.717,13.983,93.194c-0.242,10.183-47.595,30.381-93.958,43.971c-0.022-0.341-0.02-0.677-0.051-1.019
			c-1.625-18.294-14.399-32.161-28.58-30.904c-14.131,1.257-24.305,17.166-22.679,35.46c0.763,8.577,3.97,16.477,9.032,22.247
			c4.983,5.681,11.208,8.736,17.7,8.736c0.615,0,1.229-0.027,1.849-0.082c1.206-0.108,2.37-0.358,3.513-0.671
			c-0.987,6.13-3.305,13.401-8.278,17.26c-0.625,0.485-1.171,1.015-1.724,1.54c-0.664,0.429-1.209,1.012-1.614,1.693
			c-6.324,7.315-7.161,17.244-6.858,23.749c-2.279-1.518-4.511-3.049-6.673-4.601c7.154-14.429,2.343-35.277,2.111-36.248
			c-0.653-2.737-3.4-4.427-6.135-3.77c-2.736,0.649-4.428,3.396-3.78,6.134c1.208,5.103,2.996,18.459-0.518,27.592
			c-8.747-6.925-16.437-14.085-23.182-21.298c6.846-1.374,12.883-5.607,17.198-12.158c4.627-7.024,6.727-15.937,5.912-25.092
			c-0.814-9.157-4.453-17.56-10.247-23.656c-6.099-6.42-13.836-9.56-21.776-8.856c-7.945,0.707-15.002,5.166-19.871,12.558
			c-1.875,2.847-3.312,6.015-4.331,9.373c-9.436-19.286-12.976-34.785-14.112-41.047c0.704-0.575,1.351-1.214,1.953-1.895
			c4.168,1.133,7.94,1.642,11.308,1.642c9.428,0,15.785-3.753,19.785-7.42c4.55,1.103,11.703,2.953,14.604,4.186
			c1.525,0.647,2.761,3.528,3.109,5.24c0.465,2.443,2.601,4.143,5,4.143c0.316,0,0.637-0.027,0.959-0.09
			c2.764-0.527,4.58-3.195,4.053-5.959c-0.188-0.983-2.034-9.697-9.138-12.715c-2.769-1.176-7.766-2.575-11.967-3.657
			c4.912-9.894,5.015-22.537-0.241-32.462c-6.757-12.765-9.337-32.243-10.132-40.026c-0.48-4.693-3.841-8.609-8.565-9.98
			c-1.722-0.5-3.292-1.652-4.419-3.245c-1.788-2.531-2.312-6.84-1.309-7.738c0.004-0.005,0.444-0.358,2.167-0.309
			c16.038,0.122,27.753-6.631,34.664-20.396c8.066-16.072,24.106-17.794,31.399-17.789c1.376,8.199,5.036,26.478,11.676,36.784
			C609.463,249.346,609.438,249.717,609.234,250.01z M599.492,189.386c-45.191,1.86-65.444,25.254-72.31,35.841
			c-0.2,0.306-0.693,0.177-0.75,0.162c-6.11-1.697-12.118-0.734-16.921,2.707c-10.687,7.659-11.491,22.101-7.716,32.278
			c1.315,3.548,3.028,6.362,4.54,8.846c1.423,2.341,2.654,4.362,3.313,6.564c1.018,3.396,0.438,7.079-1.723,10.943
			c-2.377,4.25-5.953,7.476-8.525,9.298c-1.817-2.961-3.725-6.581-5.583-10.73c-0.058-0.148-0.118-0.293-0.191-0.437
			c-8.029-18.117-14.99-45.756-9.133-69.947c4.292-17.731,14.937-30.944,31.638-39.275c24.416-12.181,44.606-9.693,59.656-2.978
			c0.027,0.019,0.047,0.044,0.075,0.062c0.46,0.309,0.957,0.51,1.462,0.653C587.094,178.025,594.581,184.373,599.492,189.386z
			 M481.661,285.824c-8.514,4.541-19.42,1.272-24.318-7.286c-5.638-9.849-9.885-19.699-12.839-29.592
			c0.067,0,0.13,0.002,0.198,0.002c6.142,0,14.402-0.732,19.473-4.145c2.335-1.573,2.954-4.738,1.382-7.074
			c-1.571-2.331-4.739-2.954-7.073-1.381c-3.011,2.027-10.553,2.556-16.587,2.341c-4.4-21.522-2.534-43.328,5.599-65.884
			c10-27.734,28.578-46.52,55.218-55.836c5.143-1.798,10.309-3.142,15.418-4.128c0.422,6.384,0.838,17.146-0.398,25.052
			c-0.434,2.779,1.468,5.387,4.249,5.82c0.266,0.042,0.531,0.062,0.792,0.062c2.467,0,4.636-1.794,5.029-4.31
			c1.448-9.265,0.917-21.432,0.446-28.129c26.302-2.77,49.338,3.37,56.472,7.763c2.187,1.346,3.481,3.242,4.072,5.969
			c2.26,10.428-6.606,28.015-12.138,37.147c-16.938-6.777-38.988-8.715-65.075,4.3c-19.515,9.737-31.963,25.211-36.995,45.998
			c-6.238,25.762,0.284,53.426,8.169,72.674C482.391,285.399,482.032,285.626,481.661,285.824z M499.523,307.382
			c0.039-0.016,0.072-0.04,0.111-0.056c4.906-1.552,12.499-7.625,16.845-15.03c3.792-6.462,4.806-13.183,2.932-19.438
			c-1.036-3.456-2.731-6.241-4.371-8.935c-1.396-2.294-2.716-4.461-3.691-7.092c-2.549-6.875-1.961-16.106,4.098-20.448
			c2.884-2.065,6.081-1.779,8.251-1.174c4.639,1.291,9.477-0.488,12.036-4.437c6.126-9.452,24.411-34.474,67.346-31.298
			c-0.87,1.206-3.38,3.975-4.099,4.591c-11.688-0.923-31.809,2.836-41.87,21.451c-5.458,10.098-13.22,15.032-25.405,14.778
			c-3.909,0.022-6.863,0.891-9.111,2.901c-6.359,5.696-3.889,16.029-0.218,21.222c2.455,3.471,5.972,6.009,9.901,7.149
			c0.567,0.164,1.197,0.572,1.264,1.227c1.064,10.406,3.941,29.926,11.264,43.758c4.439,8.383,3.28,20.416-2.638,27.393
			c-4.914,5.79-12.368,7.652-21.703,5.483c0.05-0.523,0.08-1.051,0.08-1.587c0-9.202-7.486-16.689-16.686-16.689
			c-9.202,0-16.687,7.487-16.687,16.689c0,2.558,0.596,4.974,1.629,7.143c-0.164,0.766-0.363,1.728-0.595,2.891
			c-2.527,1.008-6.853,2.75-12.627,5.125C475.335,317.785,498.39,307.841,499.523,307.382z M486.098,369.711
			c-1.96,12.271-4.195,30.361-4.721,51.221l-11.507,3.754c-7.93,2.59-16.196,5.288-22.952,7.469l-11.108-41.144
			C458.637,380.991,476.335,373.672,486.098,369.711z M417.582,387.997c-4.016-19.439-11.235-40.473-14.073-48.397
			c-3.902-10.901-5.747-23.999-5.64-40.043c0.011-1.602,0.595-3.083,1.529-4.308l24.28,89.93c-1.519,0.698-3.239,1.495-4.974,2.299
			C418.326,387.652,417.956,387.824,417.582,387.997z M391.725,434.475c-10.244-6.999-16.393-21.655-18.799-44.801
			c-5.819-55.968,0.33-100.538,6.512-128.07c0.71-3.16,2.303-5.994,4.606-8.199c13.089-12.536,19.589-14.158,20.997-13.733
			c0.168,0.052,0.62,0.644,0.944,2.15c4.368,20.205,4.489,35.152-9.112,42.42c-5.63,3.011-9.153,8.853-9.195,15.246
			c-0.114,17.259,1.925,31.504,6.237,43.547c3.077,8.594,11.503,33.146,14.864,53.054c0.024,0.164,0.044,0.327,0.085,0.491
			c0.934,5.651,1.451,10.911,1.307,15.303c-0.092,2.812,2.114,5.168,4.927,5.26c2.89,0.169,5.168-2.113,5.26-4.927
			c0.134-4.089-0.233-8.802-0.944-13.836c1.131-0.522,2.345-1.085,3.578-1.656c1.153-0.535,2.291-1.062,3.382-1.566l10.922,40.452
			C415.49,441.432,401.387,441.077,391.725,434.475z M449.578,442.006c5.879-1.898,12.945-4.201,19.976-6.497
			c1.688,17.527,8.085,65.941,28.524,90.276c-0.349,17.54-3.697,25.673-12.182,46.163c-0.241,0.58-0.499,1.206-0.747,1.805
			L449.578,442.006z M257.32,613.82c2.218-4.17,6.356-6.838,11.069-7.141c4.711-0.271,9.157,1.821,11.889,5.673l101.464,143.109
			c0.993,1.401,2.564,2.147,4.162,2.147c1.019,0,2.048-0.304,2.942-0.938c2.295-1.627,2.838-4.81,1.209-7.106l-29.366-41.419
			l69.727-131.066c2.218-4.17,6.356-6.838,11.069-7.141c4.713-0.279,9.156,1.821,11.917,5.713l20.909,28.895
			c-9.635,12.215-44.627,57.948-60.757,97.625c-5.281,12.991-6.351,27.085-3.095,40.755c1.167,4.902,2.263,10.053,1.75,14.439
			c-0.337,2.883-0.393,15.054,2.006,81.695c-112.721-92.417-199.564-98.08-228.116-96.951L257.32,613.82z M184.509,752.486
			c25.902-1.114,124.215,3.275,248.536,116.3c8.398,7.636,16.914,14.827,25.532,21.622c0.068,0.057,0.137,0.11,0.207,0.164
			c68.857,54.23,144.612,81.631,225.886,81.628c7.738,0,15.537-0.249,23.372-0.746c59.307-3.762,110.139-21.072,147.293-38.294
			c-74.291,54.101-165.484,85.098-262.902,85.098C415.233,1018.259,255.897,914.176,184.509,752.486z M895.151,900.448
			c-0.427,0.125-0.849,0.287-1.246,0.531c-33.992,20.942-118.854,65.124-222.785,60.931c1.245-27.146,0.616-64.361-0.868-101.773
			c123.299-22.714,238.647-70.01,343.142-140.686C988.718,790.383,947.639,851.94,895.151,900.448z"/>
	</g>
	<g>
		<path fill="#494170" d="M316.413,1132.085h-15.318c-0.627,0-1.157-0.217-1.59-0.649c-0.433-0.433-0.649-0.963-0.649-1.59v-4.748
			c0-0.627,0.216-1.157,0.649-1.59s0.963-0.649,1.59-0.649h11.959c1.523,0,2.837,0.552,3.941,1.657
			c1.105,1.105,1.657,2.419,1.657,3.941v1.388c0,0.627-0.216,1.157-0.649,1.59C317.57,1131.868,317.04,1132.085,316.413,1132.085z"
			/>
		<path fill="#494170" d="M410.837,1092.536c-0.746-1.254-1.762-2.224-3.046-2.911v-0.761c0-0.418,0.097-0.784,0.291-1.097
			c0.194-0.313,0.53-0.47,1.008-0.47h20.737c0.06,0.508,0.09,1,0.09,1.478c0,2.837-1.284,5.091-3.852,6.763
			c0.896,5.166,1.821,10.421,2.777,15.766c1.881,10.749,3.703,21.08,5.464,30.994c0.328,1.105,0.948,2.016,1.859,2.732
			c0.911,0.717,1.963,1.075,3.158,1.075v1.926c0,0.537-0.194,1-0.582,1.388c-0.388,0.388-0.851,0.582-1.388,0.582h-10.122v-2.643
			c0.657-0.119,1.187-0.418,1.59-0.896c0.403-0.478,0.605-1.045,0.605-1.702l-2.777-15.676H409.18l-5.195,14.332
			c0.597,0.896,1.403,1.344,2.419,1.344v2.642c0,0.717-0.254,1.329-0.761,1.836c-0.508,0.508-1.12,0.761-1.836,0.761h-16.751v-2.598
			c0-0.717,0.254-1.336,0.761-1.859c0.508-0.523,1.12-0.784,1.836-0.784c0.567,0,1.067-0.082,1.5-0.246
			c0.433-0.164,0.799-0.515,1.097-1.053L410.837,1092.536z M411.105,1123.888h14.646l-4.792-27.097L411.105,1123.888z"/>
		<path fill="#494170" d="M455.113,1087.296h52.223v10.436h-2.598c-0.717,0-1.336-0.254-1.859-0.761
			c-0.523-0.508-0.784-1.12-0.784-1.836c0-0.567-0.082-1.068-0.246-1.5c-0.164-0.433-0.515-0.799-1.053-1.097h-8.868
			c-1.433,0-2.65,0.493-3.65,1.478c-1,0.985-1.53,2.224-1.59,3.718v43.131c0.06,1.493,0.59,2.74,1.59,3.74c1,1,2.217,1.5,3.65,1.5
			v1.926c0,0.537-0.194,1-0.582,1.388c-0.388,0.388-0.851,0.582-1.388,0.582H470.52v-2.598c0-0.717,0.254-1.336,0.761-1.859
			c0.508-0.523,1.12-0.784,1.836-0.784c0.567,0,1.067-0.09,1.5-0.269c0.433-0.179,0.814-0.522,1.142-1.03v-45.729
			c-0.06-1.493-0.59-2.732-1.59-3.718c-1-0.985-2.217-1.478-3.65-1.478h-6.27c-1.493,0.03-2.74,0.545-3.74,1.545
			c-1,1-1.5,2.217-1.5,3.65h-1.926c-0.537,0-1-0.194-1.388-0.582c-0.388-0.388-0.582-0.851-0.582-1.388V1087.296z"/>
		<path fill="#494170" d="M553.541,1087.296v2.598c0,0.717-0.254,1.336-0.761,1.859c-0.508,0.523-1.12,0.784-1.836,0.784
			c-0.537,0-1.03,0.09-1.478,0.269c-0.448,0.179-0.821,0.522-1.12,1.03v20.244h24.275v-17.647c0-1.433-0.508-2.665-1.523-3.695
			c-1.015-1.03-2.239-1.545-3.673-1.545v-1.926c0-0.537,0.194-1,0.582-1.388c0.388-0.388,0.851-0.582,1.388-0.582H584.4v2.598
			c0,0.717-0.254,1.336-0.761,1.859c-0.508,0.523-1.12,0.784-1.836,0.784c-0.567,0-1.068,0.09-1.5,0.269
			c-0.433,0.179-0.814,0.522-1.142,1.03v47.028c0.06,1.493,0.59,2.74,1.59,3.74c1,1,2.217,1.5,3.65,1.5v1.926
			c0,0.537-0.194,1-0.582,1.388c-0.388,0.388-0.851,0.582-1.388,0.582h-15.004v-2.598c0-0.717,0.254-1.336,0.761-1.859
			c0.508-0.523,1.12-0.784,1.836-0.784c0.567,0,1.067-0.09,1.5-0.269c0.433-0.179,0.799-0.522,1.097-1.03v-22.842h-24.275v20.245
			c0.03,1.493,0.545,2.74,1.545,3.74c1,1,2.217,1.5,3.65,1.5v1.926c0,0.537-0.187,1-0.56,1.388s-0.829,0.582-1.366,0.582h-19.483
			v-2.598c0-0.717,0.254-1.336,0.761-1.859c0.508-0.523,1.12-0.784,1.836-0.784c0.567,0,1.067-0.09,1.5-0.269
			c0.433-0.179,0.814-0.522,1.142-1.03v-47.028c0-1.433-0.515-2.665-1.545-3.695c-1.03-1.03-2.262-1.545-3.695-1.545v-1.926
			c0-0.537,0.194-1,0.582-1.388c0.388-0.388,0.851-0.582,1.388-0.582H553.541z"/>
		<path fill="#494170" d="M648.654,1143.461c1.493-0.03,2.74-0.545,3.74-1.545c1-1,1.5-2.232,1.5-3.695h1.926
			c0.537,0,1,0.194,1.388,0.582s0.582,0.851,0.582,1.388V1150h-47.028v-2.598c0-0.717,0.254-1.336,0.761-1.859
			c0.508-0.523,1.12-0.784,1.836-0.784c1.105,0,1.986-0.433,2.643-1.299v-47.028c-0.06-1.493-0.59-2.74-1.59-3.74
			c-1-1-2.217-1.5-3.65-1.5v-1.926c0-0.537,0.194-1,0.582-1.388c0.388-0.388,0.851-0.582,1.388-0.582h45.057v10.436h-2.598
			c-0.717,0-1.336-0.254-1.859-0.761s-0.784-1.12-0.784-1.836c0-1.105-0.433-1.971-1.299-2.598h-24.275v21.543h20.871v9.809
			c0,0.537-0.187,0.993-0.56,1.366c-0.373,0.373-0.829,0.56-1.366,0.56h-1.971c0-1.433-0.5-2.65-1.5-3.65
			c-1-1-2.232-1.515-3.695-1.545h-11.779v22.842H648.654z"/>
		<path fill="#494170" d="M685.811,1087.296h10.794l27.724,48.013v-38.876c-0.03-1.493-0.545-2.732-1.545-3.717
			c-1-0.985-2.217-1.478-3.65-1.478v-1.971c0-0.537,0.194-1,0.582-1.388c0.388-0.388,0.851-0.582,1.388-0.582h15.004v2.598
			c0,0.717-0.254,1.336-0.761,1.859c-0.508,0.523-1.12,0.784-1.836,0.784c-0.567,0-1.068,0.09-1.5,0.269
			c-0.433,0.179-0.814,0.522-1.142,1.03v47.028c0.06,1.493,0.59,2.732,1.59,3.717s2.217,1.478,3.65,1.478v1.971
			c0,0.537-0.194,1-0.582,1.388c-0.388,0.388-0.851,0.582-1.388,0.582h-8.868l-25.216-43.714v34.577
			c0.03,1.493,0.545,2.732,1.545,3.717c1,0.985,2.217,1.478,3.65,1.478v1.971c0,0.537-0.187,1-0.56,1.388s-0.829,0.582-1.366,0.582
			H683.84v-2.598c0-0.717,0.254-1.336,0.761-1.859c0.508-0.523,1.12-0.784,1.836-0.784c0.567,0,1.068-0.09,1.5-0.269
			c0.433-0.179,0.814-0.522,1.142-1.03v-47.028c-0.06-1.493-0.59-2.732-1.59-3.717s-2.217-1.478-3.65-1.478v-1.971
			c0-0.537,0.194-1,0.582-1.388C684.811,1087.49,685.274,1087.296,685.811,1087.296z"/>
		<path fill="#494170" d="M784.463,1092.536c-0.747-1.254-1.762-2.224-3.046-2.911v-0.761c0-0.418,0.097-0.784,0.291-1.097
			c0.194-0.313,0.53-0.47,1.008-0.47h20.737c0.06,0.508,0.09,1,0.09,1.478c0,2.837-1.284,5.091-3.852,6.763
			c0.896,5.166,1.821,10.421,2.777,15.766c1.881,10.749,3.703,21.08,5.464,30.994c0.328,1.105,0.948,2.016,1.859,2.732
			c0.911,0.717,1.963,1.075,3.158,1.075v1.926c0,0.537-0.194,1-0.582,1.388s-0.851,0.582-1.388,0.582h-10.122v-2.643
			c0.657-0.119,1.187-0.418,1.59-0.896c0.403-0.478,0.605-1.045,0.605-1.702l-2.777-15.676h-17.468l-5.195,14.332
			c0.597,0.896,1.403,1.344,2.419,1.344v2.642c0,0.717-0.254,1.329-0.761,1.836c-0.508,0.508-1.12,0.761-1.836,0.761H760.68v-2.598
			c0-0.717,0.254-1.336,0.761-1.859c0.508-0.523,1.12-0.784,1.836-0.784c0.567,0,1.067-0.082,1.5-0.246
			c0.433-0.164,0.799-0.515,1.097-1.053L784.463,1092.536z M784.732,1123.888h14.646l-4.792-27.097L784.732,1123.888z"/>
		<path fill="#494170" d="M898.905,1132.085h-15.318c-0.627,0-1.157-0.217-1.59-0.649c-0.433-0.433-0.649-0.963-0.649-1.59v-4.748
			c0-0.627,0.216-1.157,0.649-1.59c0.433-0.433,0.963-0.649,1.59-0.649h11.959c1.523,0,2.837,0.552,3.941,1.657
			c1.105,1.105,1.657,2.419,1.657,3.941v1.388c0,0.627-0.216,1.157-0.649,1.59C900.062,1131.868,899.532,1132.085,898.905,1132.085z
			"/>
	</g>
</g>
</svg>
